<?xml version="1.0" encoding="UTF-8" standalone="no"?>
<svg
   xmlns:dc="http://purl.org/dc/elements/1.1/"
   xmlns:cc="http://creativecommons.org/ns#"
   xmlns:rdf="http://www.w3.org/1999/02/22-rdf-syntax-ns#"
   xmlns:svg="http://www.w3.org/2000/svg"
   xmlns="http://www.w3.org/2000/svg"
   xmlns:xlink="http://www.w3.org/1999/xlink"
   xmlns:sodipodi="http://sodipodi.sourceforge.net/DTD/sodipodi-0.dtd"
   xmlns:inkscape="http://www.inkscape.org/namespaces/inkscape"
   width="297mm"
   height="297mm"
   viewBox="0 0 297 297"
   version="1.1"
   id="svg8"
   sodipodi:docname="spore svg.svg"
   inkscape:version="1.0.2-2 (e86c870879, 2021-01-15)">
  <defs
     id="defs2">
    <linearGradient
       inkscape:collect="always"
       id="linearGradient1226">
      <stop
         style="stop-color:#000000;stop-opacity:1;"
         offset="0"
         id="stop1222" />
      <stop
         style="stop-color:#000000;stop-opacity:0;"
         offset="1"
         id="stop1224" />
    </linearGradient>
    <linearGradient
       inkscape:collect="always"
       id="linearGradient855">
      <stop
         style="stop-color:#004e71;stop-opacity:1"
         offset="0"
         id="stop851" />
      <stop
         style="stop-color:#00b1ff;stop-opacity:1"
         offset="1"
         id="stop853" />
    </linearGradient>
    <linearGradient
       inkscape:collect="always"
       xlink:href="#linearGradient855"
       id="linearGradient857"
       x1="330.06772"
       y1="196.92558"
       x2="261.84299"
       y2="15.119044"
       gradientUnits="userSpaceOnUse"
       gradientTransform="translate(110.64958,6.9490077)" />
    <linearGradient
       inkscape:collect="always"
       xlink:href="#linearGradient1226"
       id="linearGradient1315"
       gradientUnits="userSpaceOnUse"
       gradientTransform="translate(-305.75634,-4.7658466)"
       x1="932.77063"
       y1="12.24939"
       x2="295.6001"
       y2="220.71962" />
  </defs>
  <sodipodi:namedview
     id="base"
     pagecolor="#ffffff"
     bordercolor="#666666"
     borderopacity="1.0"
     inkscape:pageopacity="0.0"
     inkscape:pageshadow="2"
     inkscape:zoom="0.49497475"
     inkscape:cx="446.76654"
     inkscape:cy="547.60194"
     inkscape:document-units="px"
     inkscape:current-layer="layer1"
     inkscape:document-rotation="0"
     showgrid="false"
     inkscape:window-width="1920"
     inkscape:window-height="1009"
     inkscape:window-x="-8"
     inkscape:window-y="-8"
     inkscape:window-maximized="1" />
  <metadata
     id="metadata5">
    <rdf:RDF>
      <cc:Work
         rdf:about="">
        <dc:format>image/svg+xml</dc:format>
        <dc:type
           rdf:resource="http://purl.org/dc/dcmitype/StillImage" />
        <dc:title></dc:title>
      </cc:Work>
    </rdf:RDF>
  </metadata>
  <g
     inkscape:label="Layer 1"
     inkscape:groupmode="layer"
     id="layer1">
    <g
       id="g1327"
       inkscape:export-xdpi="374.44684"
       inkscape:export-ydpi="374.44684"
       transform="translate(46.504899,-1.0690781)">
      <g
         id="g1272"
         transform="translate(-306.82542,-4.2763124)">
        <circle
           style="opacity:1;fill:url(#linearGradient857);fill-opacity:1;stroke:#00ccff;stroke-width:0.264583;stroke-opacity:0"
           id="path26"
           cx="410.00674"
           cy="151.33591"
           r="135.46666" />
      </g>
      <path
         style="fill:#ffffff;fill-opacity:1;stroke:#006a96;stroke-width:1.865;stroke-linecap:butt;stroke-linejoin:miter;stroke-miterlimit:4;stroke-dasharray:none;stroke-opacity:1"
         d="m 168.3798,71.628232 c 0,0 4.81085,-5.34539 -6.41447,-13.898015 C 150.74001,49.177593 135.77291,35.814116 94.07887,46.504897 52.38482,57.19568 44.36674,106.90781 44.36674,106.90781 c 0,0 -6.41447,29.39965 16.57071,55.05753 22.98518,25.65787 1.06908,0.53454 1.06908,0.53454 0,0 -18.70887,0 -29.93419,-25.12334 -11.22532,-25.12334 4.27631,-55.057527 4.27631,-55.057527 0,0 15.50163,-17.105249 13.89802,-21.916099 -1.60362,-4.810853 -10.15624,-2.138156 -10.15624,-2.138156 0,0 -24.5888,11.225318 -33.14142,43.297662 -8.55263,32.07235 7.48354,57.73022 7.48354,57.73022 0,0 16.57071,26.19241 50.24667,35.27958 33.67596,9.08716 -3.20723,-1.06908 -3.20723,-1.06908 0,0 30.46873,5.87993 43.29766,-4.27631 12.82894,-10.15624 0.53454,-0.53454 0.53454,-0.53454 0,0 -1.60362,12.82894 -26.72695,20.31248 -25.12334,7.48355 -55.59206,-17.10525 -55.59206,-17.10525 0,0 -14.9671,-23.51972 -19.77795,-23.51972 -4.81085,0 -4.27631,10.69079 -4.27631,10.69079 0,0 5.87993,31.00326 34.74504,45.97035 28.86511,14.9671 49.71213,8.55263 49.71213,8.55263 0,0 26.72695,-1.06908 47.57397,-31.00327 20.84703,-29.93418 11.22532,-45.97036 11.22532,-45.97036 0,0 6.94901,-2.67269 12.2944,28.33057 5.34539,31.00327 0,-1.06907 0,-1.06907 0,0 -5.87993,31.00326 -25.12333,43.8322 -19.24341,12.82894 -34.74504,15.50163 -34.74504,15.50163 0,0 -3.20724,1.06908 -2.67269,4.27631 0.53453,3.20724 7.48354,6.94901 7.48354,6.94901 0,0 35.81412,3.74177 57.73022,-19.2434 21.9161,-22.98518 22.45064,-53.45391 22.45064,-53.45391 0,0 -1.60362,-27.26149 -15.50164,-46.5049 -13.89801,-19.2434 -40.62496,-25.65787 -40.62496,-25.65787 0,0 9.08716,-6.94901 21.38156,-4.81085 12.2944,2.13815 31.00326,19.77794 31.00326,19.77794 0,0 13.36348,14.9671 14.9671,37.95228 1.60361,22.98517 0,20.84702 0,20.84702 0,0 4.81085,10.15624 12.29439,-3.20724 7.48355,-13.36347 5.87993,-34.2105 5.87993,-34.2105 0,0 -6.41446,-39.02135 -31.00326,-51.850286 -24.5888,-12.828939 0.53454,-4.810853 -28.33057,-13.363477 -28.86511,-8.552625 -64.67922,16.036171 -64.67922,16.036171 0,0 -11.75986,14.432562 -12.2944,18.174332 -0.53454,3.74177 -3.20724,-15.501632 12.2944,-35.279581 15.50163,-19.777945 -1.06908,1.603616 -1.06908,1.603616 0,0 15.50163,-14.432553 36.34865,-17.639787 20.84702,-3.207234 42.22859,9.087162 42.22859,9.087162 z"
         id="path1230" />
      <path
         style="opacity:1;fill:#ffffff;fill-opacity:1;stroke:#ffffff;stroke-width:1.865;stroke-miterlimit:4;stroke-dasharray:none;stroke-opacity:1"
         id="path1269"
         d="m 88.078465,68.426054 c -0.728742,1.593413 -1.255189,3.258619 -1.583388,4.977312 -0.168966,1.093769 -0.514551,2.137739 -0.653598,3.239932 0,0 7.11903,-3.497707 7.11903,-3.497707 v 0 c 0.179948,-1.067499 0.496393,-2.106115 0.630648,-3.182424 0.352795,-1.669219 0.889669,-3.292983 1.700289,-4.800494 0,0 -7.212981,3.263381 -7.212981,3.263381 z" />
      <path
         style="opacity:1;fill:#ffffff;fill-opacity:1;stroke:#ffffff;stroke-width:1.865;stroke-miterlimit:4;stroke-dasharray:none;stroke-opacity:1"
         id="path1278"
         d="m 77.793722,176.1405 c -1.529038,-0.77895 -2.929602,-1.68819 -4.121388,-2.92615 -1.051708,-1.22436 -1.979007,-2.58239 -2.737244,-4.00894 -0.541055,-0.91837 -1.012317,-1.87247 -1.513999,-2.81309 -0.426522,-0.85747 -0.863473,-1.6732 -1.063053,-2.61636 -0.229767,-0.90375 -0.606357,-1.69734 -1.085491,-2.48946 -0.09432,-0.14226 -0.188648,-0.28453 -0.282971,-0.42679 0,0 -6.845457,4.00356 -6.845457,4.00356 v 0 c 0.0869,0.13455 0.173803,0.26909 0.260705,0.40364 0.429369,0.72168 0.766911,1.44773 0.968137,2.27087 0.24905,0.99855 0.70758,1.88085 1.17408,2.792 0.501566,0.94288 0.95708,1.91133 1.53797,2.80864 0.821307,1.46897 1.795807,2.87118 2.879572,4.15671 1.192697,1.3039 2.586609,2.29309 4.145349,3.12493 0,0 6.68379,-4.27956 6.68379,-4.27956 z" />
      <path
         style="opacity:1;fill:#ffffff;fill-opacity:1;stroke:#ffffff;stroke-width:1.865;stroke-miterlimit:4;stroke-dasharray:none;stroke-opacity:1"
         id="path1282"
         d="m 115.33273,190.00952 c -1.24564,-1.37509 -2.54862,-2.6787 -3.67503,-4.15601 -1.00355,-1.30252 -1.9602,-2.63668 -2.89623,-3.98854 -0.48868,-0.73313 -0.76872,-1.57331 -1.10343,-2.38265 0,0 -6.92074,3.88185 -6.92074,3.88185 v 0 c 0.36776,0.85469 0.6836,1.74046 1.21657,2.51069 0.95599,1.35061 1.95784,2.66323 2.95707,3.98073 1.10475,1.50863 2.46344,2.77293 3.62333,4.23572 0,0 6.79846,-4.08179 6.79846,-4.08179 z" />
      <path
         style="opacity:1;fill:#ffffff;fill-opacity:1;stroke:#ffffff;stroke-width:1.865;stroke-miterlimit:4;stroke-dasharray:none;stroke-opacity:1"
         id="path1284"
         d="m 162.56305,203.89701 c -0.64366,-2.65905 -1.26572,-5.33098 -1.82786,-8.01055 -0.35098,-1.68091 -0.52763,-3.38765 -0.58803,-5.10152 0.0387,-0.58416 -0.21567,-1.41435 0.27989,-1.88062 0.17187,-0.16172 0.3952,-0.26152 0.56941,-0.42073 0.86178,-0.45205 1.02923,-1.62238 1.17335,-2.50213 0,0 -7.13751,3.45238 -7.13751,3.45238 v 0 c -0.23747,0.90192 -0.63884,1.53226 -1.37601,2.10739 -0.69628,0.8204 -0.59993,1.84895 -0.53536,2.86777 0.11087,1.73846 0.3606,3.46237 0.75465,5.16047 0.61713,2.71945 1.28811,5.42481 1.763,8.17463 0,0 6.92447,-3.84709 6.92447,-3.84709 z" />
      <circle
         id="path1286"
         style="fill:#ffffff;stroke:#ffffff;stroke-width:0.264583"
         cx="153.94725"
         cy="195.64128"
         r="0.49795923" />
      <path
         style="fill:url(#linearGradient1315);fill-opacity:1;stroke:none;stroke-width:0.264583px;stroke-linecap:butt;stroke-linejoin:miter;stroke-opacity:1"
         d="m 238.93896,139.55971 c 0,0 -8.01809,-26.19242 -40.09043,-22.45064 -32.07235,3.74177 -78.0427,17.10525 -78.0427,17.10525 l -146.99824,43.8322 c 0,0 5.87993,34.2105 33.67596,64.14469 27.79603,29.93418 72.16277,38.48681 72.16277,38.48681 0,0 44.36674,5.87992 72.69731,-6.94902 28.33057,-12.82893 47.57398,-31.00325 47.57398,-31.00325 0,0 21.9161,-26.19242 26.19241,-37.95228 4.27631,-11.75986 12.2944,-37.41773 12.2944,-49.71213 0,-12.2944 0.53454,-15.50163 0.53454,-15.50163 z"
         id="path1220-0-1" />
    </g>
  </g>
</svg>
